<?xml version="1.0" encoding="utf-8"?>
<!-- Generator: Adobe Illustrator 15.0.2, SVG Export Plug-In . SVG Version: 6.00 Build 0)  -->
<!DOCTYPE svg PUBLIC "-//W3C//DTD SVG 1.1//EN" "http://www.w3.org/Graphics/SVG/1.1/DTD/svg11.dtd">
<svg version="1.1" xmlns="http://www.w3.org/2000/svg" xmlns:xlink="http://www.w3.org/1999/xlink" x="0px" y="0px" width="100px"
	 height="100px" viewBox="0 0 100 100" enable-background="new 0 0 100 100" xml:space="preserve">
<g id="Ebene_1" display="none">
	<g display="inline">
		<path fill="#00163D" d="M100,50c0,27.611-22.385,50-50,50C22.386,100,0,77.611,0,50C0,22.387,22.386,0,50,0
			C77.615,0,100,22.387,100,50z"/>
		<g>
			<g>
				<path fill="#FFFFFF" d="M24.453,33.432h-2.4v-3.199h2.4V33.432z M24.453,27.033h-2.4v-3.201h2.4V27.033z"/>
			</g>
			<g>
				<path fill="#FFFFFF" d="M76.453,78.232h-3.199v-2.4h3.199V78.232z M70.053,78.232h-3.199v-2.4h3.199V78.232z"/>
			</g>
			<g>
				<path fill="#FFFFFF" d="M76.453,78.232h-2.4v-3.199h2.4V78.232z M76.453,71.832h-2.4v-3.199h2.4V71.832z M76.453,65.432h-2.4
					v-3.199h2.4V65.432z M76.453,59.033h-2.4v-3.201h2.4V59.033z M76.453,52.633h-2.4v-3.201h2.4V52.633z M76.453,46.232h-2.4
					v-3.199h2.4V46.232z M76.453,39.832h-2.4v-3.199h2.4V39.832z"/>
			</g>
			<g>
				<path fill="#FFFFFF" d="M63.652,26.232h-3.199v-2.4h3.199V26.232z M57.254,26.232h-3.201v-2.4h3.201V26.232z M50.853,26.232
					h-3.2v-2.4h3.2V26.232z M44.453,26.232h-3.2v-2.4h3.2V26.232z M38.053,26.232h-3.2v-2.4h3.2V26.232z M31.653,26.232h-3.2v-2.4
					h3.2V26.232z M25.253,26.232h-3.2v-2.4h3.2V26.232z"/>
			</g>
		</g>
		<rect x="22.053" y="37.848" fill="#FFFFFF" width="40.384" height="40.385"/>
		<g>
			<polygon fill="#FFFFFF" points="56.348,29.723 60.164,33.538 73.631,20.071 79.645,26.084 66.178,39.551 70.051,43.428 
				51.332,48.441 			"/>
			<path fill="#00163D" d="M73.631,21.768l4.316,4.316L64.48,39.551l3.254,3.256l-14.705,3.938l3.939-14.703l3.195,3.193
				L73.631,21.768 M73.631,18.374l-1.697,1.697l-11.77,11.77l-1.498-1.497l-2.939-2.938L54.65,31.42l-3.94,14.703l-1.076,4.015
				l4.016-1.075l14.705-3.938l4.014-1.075l-2.938-2.94l-1.557-1.559l11.77-11.771l1.697-1.697l-1.697-1.697l-4.316-4.316
				L73.631,18.374L73.631,18.374z"/>
		</g>
	</g>
</g>
<g id="_x31_3_x5F_Genehmigung_x5F_einfacher" display="none">
	<path display="inline" fill="#00163D" d="M100.001,50c0,27.611-22.386,50-50.001,50C22.386,100,0,77.611,0,50
		C0,22.387,22.386,0,50,0C77.615,0,100.001,22.387,100.001,50z"/>
	<g display="inline">
		
			<rect x="23.022" y="31.48" fill="#00163D" stroke="#FFFFFF" stroke-width="4" stroke-miterlimit="10" width="40.576" height="40.574"/>
		
			<rect x="29.623" y="24.857" fill="#00163D" stroke="#FFFFFF" stroke-width="4" stroke-miterlimit="10" width="40.576" height="40.576"/>
		<line fill="none" stroke="#FFFFFF" stroke-width="4" stroke-miterlimit="10" x1="35.289" y1="56.123" x2="63.608" y2="56.123"/>
		<line fill="none" stroke="#FFFFFF" stroke-width="4" stroke-miterlimit="10" x1="35.289" y1="49.148" x2="63.923" y2="49.148"/>
		<line fill="none" stroke="#FFFFFF" stroke-width="4" stroke-miterlimit="10" x1="35.289" y1="42.174" x2="63.923" y2="42.174"/>
	</g>
	<g display="inline">
		<path fill="#FFFFFF" d="M70.601,80.82c-9.548,0-17.316-7.816-17.316-17.424c0-9.608,7.769-17.426,17.316-17.426
			c9.549,0,17.317,7.817,17.317,17.426C87.918,73.004,80.149,80.82,70.601,80.82z"/>
		<path fill="#00163D" d="M70.601,47.471c8.736,0,15.817,7.131,15.817,15.926S79.337,79.32,70.601,79.32
			c-8.735,0-15.816-7.129-15.816-15.924S61.865,47.471,70.601,47.471 M70.601,44.471c-10.375,0-18.816,8.49-18.816,18.926
			c0,10.435,8.441,18.924,18.816,18.924c10.376,0,18.817-8.489,18.817-18.924C89.418,52.961,80.977,44.471,70.601,44.471
			L70.601,44.471z"/>
	</g>
	<polygon display="inline" fill="#00163D" stroke="#00163D" stroke-miterlimit="10" points="75.898,57.34 68.835,64.396 
		65.312,60.873 61.779,64.396 68.835,71.451 79.422,60.873 	"/>
	<path display="inline" fill="none" stroke="#FFFFFF" stroke-width="4" stroke-miterlimit="10" d="M64.317,50"/>
	<path display="inline" fill="none" stroke="#FFFFFF" stroke-width="4" stroke-miterlimit="10" d="M35.683,50"/>
</g>
<g id="_x31_2_x5F_web_x5F_tool" display="none">
	<path display="inline" fill="#00163D" d="M100.001,50c0,27.611-22.386,50-50.001,50C22.386,100,0,77.611,0,50
		C0,22.387,22.386,0,50,0C77.615,0,100.001,22.387,100.001,50z"/>
	<path display="inline" fill="#FFFFFF" d="M44.872,69.873c-6.593,0-13.188-0.105-19.777,0.055c-2.487,0.061-4.563-1.568-4.521-4.477
		c0.075-5.273,0.021-10.549,0.021-15.822c0-6.83-0.016-13.658,0.013-20.486c0.007-1.549,0.189-3.131,1.843-3.877
		c0.685-0.309,1.504-0.447,2.263-0.447c14.837-0.025,29.675-0.016,44.511-0.006c0,13.666,0,27.33,0,40.996
		c0,2.445-1.596,4.064-4.006,4.064C58.437,69.875,51.653,69.873,44.872,69.873z M44.952,67.037c7.15,0,14.301-0.018,21.45,0.02
		c-0.031-10.895,0.005-32.407,0.005-32.407s-32.605-0.097-41.316-0.14c-1.179-0.006-1.568,0.365-1.564,1.533
		c0.031,9.652,0.011,19.305,0.025,28.957c0.002,1.781,0.293,2.037,2.048,2.037C32.051,67.039,38.501,67.039,44.952,67.037z"/>
	<g display="inline">
		<g>
			<path fill="#FFFFFF" d="M73.87,80.219c-1.267,0-2.477-0.362-3.515-1.04l-0.098,0.083l-1.001-0.938
				c-0.001-0.001-5.01-4.931-7.525-7.384c-1.707-1.664-3.419-3.321-5.138-4.974c-0.68-0.652-1.262-1.206-1.866-1.726
				c-1.251,0.274-2.461,0.413-3.601,0.413c-2.657,0-5.097-0.751-7.253-2.231c-3.407-2.339-5.338-5.492-5.741-9.373L38.106,52.8
				c-0.078-0.729-0.158-1.483-0.124-2.277c0.026-0.606,0.135-1.159,0.25-1.745c0.047-0.237,0.096-0.484,0.14-0.746l0.468-2.758
				l2.848,2.677c0.926,0.872,1.808,1.702,2.699,2.524c0.283,0.262,0.534,0.495,0.728,0.595c0.083,0.042,0.17,0.063,0.26,0.063
				c0.187,0,0.378-0.09,0.538-0.252c1.51-1.539,3.012-3.104,4.478-4.664c-0.846-0.874-1.736-1.714-2.664-2.59
				c-0.388-0.366-0.776-0.732-1.161-1.102c-0.126-0.12-0.244-0.253-0.413-0.454l-0.249-0.291l-1.725-1.976l2.578-0.484
				c0.289-0.054,0.561-0.113,0.822-0.17c0.619-0.134,1.204-0.261,1.842-0.304c0.378-0.025,0.751-0.038,1.122-0.038
				c3.104,0,5.854,0.92,8.172,2.734c2.498,1.953,4.119,4.478,4.82,7.502c0.466,2.01,0.493,3.906,0.084,5.787
				c1.48,1.543,3.048,3.094,4.383,4.405c1.231,1.21,2.473,2.409,3.713,3.608c1.465,1.416,2.93,2.832,4.379,4.265l1.381,1.295
				c0.549,0.372,1.041,0.833,1.464,1.374l1.187,1.095l-0.346,0.294c0.362,0.814,0.55,1.69,0.55,2.588
				C80.332,77.32,77.434,80.219,73.87,80.219z"/>
			<path fill="#00163D" d="M50.546,40.309c2.642,0,5.083,0.722,7.248,2.416c2.207,1.727,3.648,3.922,4.283,6.66
				c0.414,1.789,0.457,3.559,0.027,5.357c-0.074,0.311,0.117,0.801,0.354,1.049c1.472,1.531,2.98,3.029,4.496,4.518
				c2.684,2.637,5.413,5.225,8.088,7.869l1.502,1.41c0.5,0.321,0.93,0.732,1.285,1.207l0.038,0.035l-0.005,0.004
				c0.603,0.822,0.97,1.826,0.97,2.923c0,2.74-2.222,4.962-4.962,4.962c-1.386,0-2.636-0.57-3.536-1.486l-0.025,0.021
				c0,0-5.013-4.934-7.53-7.389c-1.709-1.666-3.424-3.326-5.145-4.98c-0.712-0.684-1.428-1.367-2.186-2
				c-0.143-0.118-0.389-0.18-0.611-0.18c-0.079,0-0.155,0.008-0.223,0.023c-1.184,0.274-2.347,0.425-3.487,0.425
				c-2.241,0-4.389-0.584-6.403-1.968c-2.916-2.002-4.728-4.713-5.099-8.291c-0.08-0.768-0.177-1.541-0.144-2.307
				c0.031-0.721,0.224-1.436,0.371-2.305c1.234,1.16,2.369,2.234,3.519,3.295c0.329,0.305,0.668,0.625,1.06,0.826
				c0.302,0.155,0.624,0.229,0.946,0.229c0.582,0,1.16-0.244,1.609-0.702c1.844-1.879,3.664-3.783,5.457-5.711
				c-1.509-1.695-3.201-3.209-4.837-4.777c-0.149-0.143-0.274-0.311-0.569-0.648c0.936-0.176,1.706-0.398,2.488-0.451
				C49.868,40.321,50.208,40.309,50.546,40.309 M50.546,37.309c-0.4,0-0.811,0.014-1.222,0.042c-0.749,0.05-1.416,0.195-2.06,0.334
				c-0.249,0.054-0.507,0.11-0.782,0.162l-5.156,0.969l3.45,3.952c0.095,0.109,0.17,0.197,0.233,0.272
				c0.154,0.183,0.314,0.372,0.525,0.574c0.383,0.367,0.774,0.736,1.165,1.104c0.549,0.518,1.084,1.023,1.603,1.528
				c-0.975,1.028-1.963,2.055-2.956,3.071c-0.87-0.803-1.729-1.611-2.63-2.46l-0.808-0.761l-4.077-3.832l-0.936,5.516
				c-0.042,0.248-0.089,0.482-0.133,0.707c-0.121,0.615-0.246,1.25-0.277,1.97c-0.04,0.905,0.051,1.753,0.131,2.501l0.026,0.247
				c0.45,4.336,2.598,7.854,6.385,10.453c2.409,1.655,5.135,2.494,8.101,2.494c1.015,0,2.076-0.1,3.165-0.296
				c0.397,0.361,0.808,0.753,1.264,1.191c1.715,1.648,3.425,3.304,5.129,4.965c2.514,2.451,7.519,7.378,7.52,7.378l1.951,1.921
				l0.381-0.322c1.032,0.478,2.163,0.729,3.334,0.729c4.391,0,7.962-3.571,7.962-7.962c0-0.696-0.091-1.381-0.269-2.042l0.897-0.72
				l-2.416-2.237c-0.475-0.589-1.02-1.099-1.623-1.521l-1.299-1.22c-1.448-1.432-2.93-2.863-4.363-4.249
				c-1.237-1.196-2.476-2.393-3.703-3.599c-1.16-1.14-2.496-2.46-3.818-3.818c0.292-1.839,0.212-3.695-0.238-5.642
				c-0.781-3.369-2.583-6.176-5.357-8.347C57.054,38.336,53.993,37.309,50.546,37.309L50.546,37.309z"/>
		</g>
		<circle fill="#00163D" stroke="#00163D" stroke-miterlimit="10" cx="73.87" cy="73.757" r="1.712"/>
	</g>
</g>
<g id="_x31_1_x5F_Entscheidungstraeger" display="none">
	<g display="inline">
		<path fill="#00163D" d="M100.001,50c0,27.611-22.386,50-50.001,50C22.386,100,0,77.611,0,50C0,22.387,22.386,0,50,0
			C77.615,0,100.001,22.387,100.001,50z"/>
		<circle fill="none" stroke="#FFFFFF" stroke-width="4" stroke-miterlimit="10" cx="49.638" cy="50.276" r="28.316"/>
		<g>
			<path fill="#FFFFFF" d="M37.527,40.9l0.109-1.602c0.028-0.41,0.284-4.055,0.681-5.682c0.044-0.182,0.087-0.383,0.133-0.601
				c0.359-1.678,0.961-4.487,3.704-7.043c0.219-0.204,0.426-0.392,0.622-0.564c-1.482-1.675-2.305-3.822-2.305-6.113
				c0-5.114,4.161-9.275,9.275-9.275s9.275,4.161,9.275,9.275c0,2.206-0.77,4.29-2.157,5.941c0.261,0.235,0.532,0.501,0.815,0.799
				c2.643,2.779,3.745,7.254,3.979,9.461c0.28,2.647,0.2,3.947,0.197,4L61.766,40.9H37.527z"/>
			<path fill="#00163D" d="M49.747,11.521c4.294,0,7.775,3.481,7.775,7.775c0,2.493-1.179,4.707-3.004,6.13
				c0.441,0.173,1.099,0.618,2.075,1.645c2.396,2.52,3.378,6.732,3.575,8.586c0.27,2.549,0.191,3.744,0.191,3.744H39.133
				c0,0,0.264-3.879,0.642-5.428c0.377-1.547,0.659-4.345,3.403-6.902c0.939-0.875,1.534-1.329,1.917-1.556
				c-1.893-1.418-3.123-3.672-3.123-6.219C41.972,15.002,45.452,11.521,49.747,11.521 M49.747,8.521
				c-5.941,0-10.775,4.834-10.775,10.775c0,2.16,0.629,4.208,1.785,5.944c-2.77,2.783-3.417,5.806-3.772,7.463
				c-0.043,0.202-0.083,0.39-0.124,0.56c-0.418,1.712-0.673,5.244-0.72,5.935L35.922,42.4h3.211H60.36h2.811l0.183-2.804
				c0.01-0.149,0.087-1.53-0.201-4.255c-0.07-0.658-0.78-6.479-4.313-10.261c1.09-1.704,1.683-3.696,1.683-5.784
				C60.522,13.354,55.688,8.521,49.747,8.521L49.747,8.521z"/>
		</g>
		<g>
			<path fill="#FFFFFF" d="M62.595,76.657l0.109-1.602c0.027-0.41,0.283-4.055,0.68-5.681c0.045-0.185,0.088-0.387,0.135-0.604
				c0.359-1.678,0.962-4.485,3.704-7.041c0.219-0.203,0.425-0.391,0.621-0.563c-1.482-1.676-2.306-3.823-2.306-6.114
				c0-5.114,4.161-9.275,9.275-9.275s9.275,4.161,9.275,9.275c0,2.206-0.77,4.29-2.157,5.941c0.261,0.235,0.533,0.501,0.816,0.799
				c2.645,2.78,3.745,7.256,3.979,9.462c0.281,2.646,0.2,3.947,0.197,4.001l-0.093,1.401H62.595z"/>
			<path fill="#00163D" d="M74.813,47.277c4.295,0,7.775,3.481,7.775,7.775c0,2.493-1.178,4.707-3.004,6.13
				c0.441,0.173,1.1,0.618,2.076,1.645c2.396,2.52,3.378,6.732,3.574,8.586c0.271,2.549,0.191,3.744,0.191,3.744H64.2
				c0,0,0.264-3.879,0.641-5.428c0.378-1.547,0.66-4.345,3.404-6.902c0.939-0.875,1.533-1.329,1.916-1.556
				c-1.893-1.418-3.123-3.672-3.123-6.219C67.038,50.759,70.52,47.277,74.813,47.277 M74.813,44.277
				c-5.941,0-10.775,4.834-10.775,10.775c0,2.16,0.629,4.209,1.785,5.944c-2.768,2.781-3.416,5.803-3.771,7.459
				c-0.044,0.203-0.084,0.391-0.125,0.562c-0.417,1.714-0.673,5.246-0.72,5.937l-0.218,3.203H64.2h21.227h2.808l0.186-2.802
				c0.01-0.148,0.088-1.532-0.201-4.259c-0.069-0.655-0.777-6.477-4.312-10.261c1.09-1.703,1.682-3.696,1.682-5.783
				C85.589,49.111,80.755,44.277,74.813,44.277L74.813,44.277z"/>
		</g>
		<g>
			<path fill="#FFFFFF" d="M12.957,76.657l0.109-1.602c0.028-0.41,0.284-4.055,0.681-5.682c0.044-0.183,0.087-0.384,0.133-0.601
				c0.359-1.678,0.961-4.486,3.704-7.044c0.219-0.203,0.426-0.391,0.622-0.563c-1.482-1.675-2.305-3.822-2.305-6.113
				c0-5.114,4.161-9.275,9.274-9.275c5.114,0,9.275,4.161,9.275,9.275c0,2.206-0.77,4.29-2.157,5.941
				c0.261,0.235,0.532,0.501,0.816,0.799c2.645,2.78,3.745,7.256,3.979,9.462c0.281,2.646,0.201,3.946,0.197,4l-0.091,1.402H12.957z
				"/>
			<path fill="#00163D" d="M25.176,47.277c4.295,0,7.775,3.481,7.775,7.775c0,2.493-1.178,4.707-3.003,6.13
				c0.44,0.173,1.099,0.618,2.075,1.645c2.396,2.52,3.378,6.732,3.574,8.586c0.271,2.549,0.192,3.744,0.192,3.744H14.563
				c0,0,0.264-3.879,0.642-5.428c0.377-1.547,0.659-4.345,3.403-6.902c0.939-0.875,1.534-1.329,1.917-1.556
				c-1.893-1.418-3.123-3.672-3.123-6.219C17.401,50.759,20.882,47.277,25.176,47.277 M25.176,44.277
				c-5.941,0-10.774,4.834-10.774,10.775c0,2.159,0.629,4.208,1.785,5.943c-2.77,2.783-3.417,5.807-3.772,7.464
				c-0.043,0.202-0.083,0.39-0.124,0.56c-0.418,1.711-0.673,5.243-0.72,5.935l-0.218,3.203h3.211H35.79h2.811l0.183-2.805
				c0.01-0.148,0.086-1.53-0.203-4.256c-0.069-0.655-0.777-6.476-4.312-10.261c1.089-1.703,1.682-3.696,1.682-5.783
				C35.951,49.111,31.117,44.277,25.176,44.277L25.176,44.277z"/>
		</g>
	</g>
</g>
<g id="_x31_0_x5F_Genehmigung_x5F_zeitaufwendig" display="none">
	<g display="inline">
		<polygon fill="#00163D" stroke="#00163D" stroke-miterlimit="10" points="70.693,57.168 63.63,64.225 60.106,60.701 
			56.574,64.225 63.63,71.279 74.217,60.701 		"/>
		<path fill="#00163D" d="M100.001,50c0,27.611-22.386,50-50.001,50C22.386,100,0,77.611,0,50C0,22.387,22.386,0,50,0
			C77.615,0,100.001,22.387,100.001,50z"/>
		
			<rect x="23.022" y="31.48" fill="#00163D" stroke="#FFFFFF" stroke-width="4" stroke-miterlimit="10" width="40.576" height="40.574"/>
		
			<rect x="29.623" y="24.857" fill="#00163D" stroke="#FFFFFF" stroke-width="4" stroke-miterlimit="10" width="40.576" height="40.576"/>
		<line fill="none" stroke="#FFFFFF" stroke-width="4" stroke-miterlimit="10" x1="35.289" y1="56.123" x2="63.608" y2="56.123"/>
		<line fill="none" stroke="#FFFFFF" stroke-width="4" stroke-miterlimit="10" x1="35.289" y1="49.148" x2="63.923" y2="49.148"/>
		<line fill="none" stroke="#FFFFFF" stroke-width="4" stroke-miterlimit="10" x1="35.289" y1="42.174" x2="63.923" y2="42.174"/>
		<g transform="translate(-215.72 -364.22)">
			<g>
				<path fill="#00163D" d="M273.63,443.075l19.419-0.08c0.082-15.488-19.406-15.492-19.325-28.979h19.342
					c0.082,13.486-19.435,13.613-19.435,28.979L273.63,443.075z"/>
				<g>
					<path fill="#FFFFFF" d="M270.309,442.961c0-7.105,3.476-11.578,7.666-15.146c-3.573-2.869-7.613-7.03-7.572-13.819l0.02-3.302
						h25.947l0.018,3.304c0.039,6.465-3.471,10.479-7.552,13.806c4.146,3.543,7.574,8.013,7.536,15.207l-0.018,3.292l-26.08,0.108
						L270.309,442.961z M283.403,431.958c-2.715,2.142-5.079,4.47-6.018,7.781l11.947-0.051
						C288.533,436.698,286.533,434.467,283.403,431.958z M284.118,423.075c2.457-1.932,4.186-3.616,5.033-5.736h-11.51
						c0.852,2.11,2.589,3.796,5.057,5.731l0.705-1.416L284.118,423.075z"/>
					<path fill="#00163D" d="M294.38,412.695l0.007,1.314c0.041,6.707-4.282,10.393-8.771,13.77
						c4.229,3.238,8.797,7.443,8.756,15.223l-0.007,1.311l-22.07,0.092l0.015-1.422c0-7.701,4.627-11.932,8.901-15.201
						c-4.493-3.373-8.849-7.035-8.808-13.771l0.008-1.314H294.38 M291.68,415.339h-16.57c0.519,4.895,4.125,7.674,8.303,10.787
						l0.001-0.002l0.001,0.002C287.581,423.015,291.162,420.216,291.68,415.339 M275.002,441.749l16.681-0.07
						c-0.426-5.615-3.818-8.861-8.271-12.25C279.549,432.337,275.496,435.728,275.002,441.749 M298.36,408.695h-3.979h-21.97h-3.977
						l-0.023,3.976l-0.008,1.314c-0.04,6.537,3.168,10.815,6.522,13.867c-3.218,3.138-6.616,7.941-6.616,15.13l-0.015,1.381
						l-0.042,4.058l4.059-0.017l22.07-0.092l3.963-0.017l0.021-3.963l0.007-1.311c0.038-7.249-3.311-12.053-6.492-15.179
						c3.289-3.029,6.547-7.381,6.508-13.858l-0.007-1.311L298.36,408.695L298.36,408.695z M284.506,419.339h0.865
						c-0.184,0.186-0.379,0.373-0.586,0.563L284.506,419.339L284.506,419.339z M281.434,419.339h0.914l-0.297,0.592
						C281.834,419.733,281.628,419.535,281.434,419.339L281.434,419.339z M280.476,437.726c0.754-1.154,1.752-2.179,2.915-3.177
						c1.216,1.063,2.172,2.076,2.874,3.152L280.476,437.726L280.476,437.726z"/>
				</g>
			</g>
			<path fill="#FFFFFF" d="M277.518,422.054c5.066,1.961,6.702,1.799,12.096-0.082l-6.211,5.803L277.518,422.054z"/>
			<path fill="#FFFFFF" d="M274.248,440.281c9.154-7.602,9.154-7.602,18.227,0l0.654,2.779h-19.453L274.248,440.281z"/>
		</g>
	</g>
</g>
<g id="_x39__x5F_Infos_x5F_suchen" display="none">
	<g display="inline">
		<path fill="#00163D" d="M100,50c0,27.611-22.385,50-50,50C22.385,100,0,77.611,0,50C0,22.387,22.385,0,50,0
			C77.615,0,100,22.387,100,50z"/>
		<path fill="#FFFFFF" d="M73.926,22.786c-8.164-8.229-21.463-8.276-29.692-0.106c-7.764,7.713-8.246,19.99-1.401,28.269
			l0.074,0.078c1.384,1.582,1.923,2.168,3.096,3.024c8.218,6.52,20.2,6.012,27.825-1.568C82.061,44.311,82.107,31.013,73.926,22.786
			z M70.133,48.757c-6.174,6.139-16.146,6.097-22.273-0.072c-6.13-6.175-6.099-16.146,0.076-22.28
			c6.164-6.133,16.144-6.085,22.269,0.081C76.342,32.655,76.307,42.632,70.133,48.757z"/>
		<polygon fill="#FFFFFF" points="17.75,74.511 22.521,79.678 43.15,57.311 39.711,53.863 		"/>
		<path fill="#FFFFFF" d="M54.852,36.895l2.146,0.004l-0.021,8.449l-1.982-0.005l-0.006,3.201l8.221,0.022l0.006-3.202l-1.982-0.004
			l0.029-11.684l-6.402-0.018L54.852,36.895z M56.857,26.602l-0.012,4.423l4.258,0.009l0.012-4.422L56.857,26.602z"/>
	</g>
</g>
<g id="_x38__x5F_niedrige_x5F_Kosten" display="none">
	<g display="inline">
		<path fill="#00163D" d="M100,50c0,27.611-22.385,50-50,50S0,77.611,0,50C0,22.387,22.385,0,50,0S100,22.387,100,50z"/>
		<g>
			<path fill="#FFFFFF" d="M40.159,64.227c-11.655,0-21.389-4.092-23.794-9.555c-0.373,0.848-0.576,1.727-0.576,2.631
				c0,6.725,10.907,12.184,24.37,12.184c13.453,0,24.369-5.459,24.369-12.184c0-0.904-0.203-1.783-0.576-2.631
				C61.545,60.135,51.806,64.227,40.159,64.227z"/>
			<path fill="#FFFFFF" d="M40.159,75.186c-11.655,0-21.389-4.092-23.794-9.555c-0.373,0.848-0.576,1.727-0.576,2.631
				c0,6.725,10.907,12.184,24.37,12.184c13.453,0,24.369-5.459,24.369-12.184c0-0.904-0.203-1.783-0.576-2.631
				C61.545,71.094,51.806,75.186,40.159,75.186z"/>
			<path fill="#FFFFFF" d="M40.159,58.963c13.453,0,24.369-5.459,24.369-12.184c0-6.73-10.916-12.186-24.369-12.186
				c-13.463,0-24.37,5.455-24.37,12.186C15.789,53.504,26.696,58.963,40.159,58.963"/>
		</g>
		<g>
			<g>
				<path fill="#FFFFFF" d="M66.116,85.74c-12.024,0-21.808-9.782-21.808-21.807c0-12.025,9.783-21.809,21.808-21.809
					s21.808,9.783,21.808,21.809C87.924,75.958,78.141,85.74,66.116,85.74z"/>
				<path fill="#00163D" d="M66.116,43.625c11.215,0,20.308,9.094,20.308,20.309S77.331,84.24,66.116,84.24
					s-20.308-9.092-20.308-20.307S54.901,43.625,66.116,43.625 M66.116,40.625c-12.852,0-23.308,10.456-23.308,23.309
					c0,12.852,10.456,23.307,23.308,23.307s23.308-10.455,23.308-23.307C89.424,51.081,78.968,40.625,66.116,40.625L66.116,40.625z"
					/>
			</g>
			<path fill="#00163D" d="M67.926,72.807c2.164,0,3.944-0.734,5.532-1.625v3.945c-1.897,0.891-3.715,1.471-6.072,1.471
				c-5.727,0-9.478-3.328-10.602-9.283H53.46l0.697-2.785h2.514v-3.094H53.46l0.697-2.822h2.707c1.391-5.766,5.529-9.09,10.674-9.09
				c2.939,0,5.223,0.85,7.234,2.205l-1.818,3.131c-1.703-1.08-3.171-1.584-5.222-1.584c-2.708,0-4.796,1.623-5.763,5.338h9.631
				l-0.734,2.822h-9.13v3.094h8.47l-0.656,2.785h-7.656C62.59,71.143,64.562,72.807,67.926,72.807"/>
		</g>
		<g>
			<polygon fill="#FFFFFF" points="42.012,38.665 46.857,33.822 30.021,16.986 37.541,9.469 54.375,26.303 59.144,21.537 
				65.412,44.934 			"/>
			<path fill="#00163D" d="M37.541,11.59l16.834,16.834l3.992-3.99l4.924,18.379L44.91,37.889l4.068-4.066L32.143,16.986
				L37.541,11.59 M37.542,7.348L35.42,9.468l-5.398,5.396l-2.122,2.121l2.122,2.122l14.714,14.714l-1.946,1.945l-3.677,3.675
				l5.021,1.345l18.381,4.924l5.019,1.344l-1.345-5.019l-4.924-18.379l-1.344-5.018l-3.675,3.672l-1.87,1.87L39.662,9.469
				L37.542,7.348L37.542,7.348z"/>
		</g>
	</g>
</g>
<g id="_x37__x5F_hohe_x5F_Investitionen">
	<g>
		<path fill="#00163D" d="M100,50c0,27.611-22.385,50-50,50S0,77.611,0,50C0,22.387,22.385,0,50,0S100,22.387,100,50z"/>
		<path fill="#FFFFFF" d="M40.159,46.241c-11.655,0-21.389-4.093-23.794-9.556c-0.373,0.848-0.576,1.728-0.576,2.631
			c0,6.726,10.907,12.185,24.37,12.185c13.453,0,24.369-5.459,24.369-12.185c0-0.903-0.203-1.783-0.576-2.631
			C61.545,42.148,51.806,46.241,40.159,46.241z"/>
		<path fill="#FFFFFF" d="M40.159,57.2c-11.655,0-21.389-4.093-23.794-9.556c-0.373,0.848-0.576,1.728-0.576,2.631
			c0,6.726,10.907,12.185,24.37,12.185c13.453,0,24.369-5.459,24.369-12.185c0-0.903-0.203-1.783-0.576-2.631
			C61.545,53.107,51.806,57.2,40.159,57.2z"/>
		<path fill="#FFFFFF" d="M40.159,67.241c-11.655,0-21.389-4.093-23.794-9.556c-0.373,0.848-0.576,1.728-0.576,2.631
			c0,6.726,10.907,12.185,24.37,12.185c13.453,0,24.369-5.459,24.369-12.185c0-0.903-0.203-1.783-0.576-2.631
			C61.545,63.148,51.806,67.241,40.159,67.241z"/>
		<path fill="#FFFFFF" d="M40.159,78.241c-11.655,0-21.389-4.093-23.794-9.556c-0.373,0.848-0.576,1.728-0.576,2.631
			c0,6.726,10.907,12.185,24.37,12.185c13.453,0,24.369-5.459,24.369-12.185c0-0.903-0.203-1.783-0.576-2.631
			C61.545,74.148,51.806,78.241,40.159,78.241z"/>
		<path fill="#FFFFFF" d="M40.159,40.922c13.453,0,24.369-5.459,24.369-12.185c0-6.729-10.916-12.186-24.369-12.186
			c-13.463,0-24.37,5.456-24.37,12.186C15.789,35.463,26.696,40.922,40.159,40.922"/>
		<g>
			<g>
				<path fill="#FFFFFF" d="M66.116,85.796c-12.024,0-21.808-9.783-21.808-21.808s9.783-21.808,21.808-21.808
					s21.808,9.783,21.808,21.808S78.141,85.796,66.116,85.796z"/>
				<path fill="#00163D" d="M66.116,43.681c11.215,0,20.308,9.093,20.308,20.308s-9.093,20.308-20.308,20.308
					s-20.308-9.093-20.308-20.308S54.901,43.681,66.116,43.681 M66.116,40.681c-12.852,0-23.308,10.456-23.308,23.308
					s10.456,23.308,23.308,23.308S89.424,76.84,89.424,63.988S78.968,40.681,66.116,40.681L66.116,40.681z"/>
			</g>
			<path fill="#00163D" d="M67.926,72.806c2.164,0,3.944-0.733,5.532-1.624v3.945c-1.897,0.89-3.715,1.471-6.072,1.471
				c-5.727,0-9.478-3.328-10.602-9.284H53.46l0.697-2.784h2.514v-3.095H53.46l0.697-2.821h2.707
				c1.391-5.766,5.529-9.091,10.674-9.091c2.939,0,5.223,0.851,7.234,2.205l-1.818,3.131c-1.703-1.08-3.171-1.584-5.222-1.584
				c-2.708,0-4.796,1.624-5.763,5.339h9.631l-0.734,2.821h-9.13v3.095h8.47l-0.656,2.784h-7.656
				C62.59,71.142,64.562,72.806,67.926,72.806"/>
		</g>
	</g>
</g>
<g id="_x36__x5F_Smart_x5F_Grids" display="none">
	<path display="inline" fill="#00163D" d="M100,50c0,27.611-22.385,50-50,50C22.385,100,0,77.611,0,50C0,22.387,22.385,0,50,0
		C77.615,0,100,22.387,100,50z"/>
	<g display="inline">
		<g>
			<path fill="#00163D" d="M21,57.833c-4.043,0-7.333-3.289-7.333-7.333c0-4.043,3.29-7.333,7.333-7.333s7.333,3.29,7.333,7.333
				C28.333,54.544,25.043,57.833,21,57.833z"/>
			<path fill="#FFFFFF" d="M21,45c3.036,0,5.5,2.463,5.5,5.5S24.036,56,21,56s-5.5-2.463-5.5-5.5S17.964,45,21,45 M21,41.333
				c-5.055,0-9.167,4.112-9.167,9.167s4.112,9.167,9.167,9.167s9.167-4.112,9.167-9.167S26.055,41.333,21,41.333L21,41.333z"/>
		</g>
		<line fill="none" stroke="#FFFFFF" stroke-width="3" stroke-miterlimit="10" x1="73.02" y1="49.723" x2="27.02" y2="49.723"/>
		<polyline fill="none" stroke="#FFFFFF" stroke-width="3" stroke-miterlimit="10" points="35.225,50.223 41.43,69.723 
			51.02,69.723 		"/>
		<polyline fill="none" stroke="#FFFFFF" stroke-width="3" stroke-miterlimit="10" points="43.225,49.223 49.43,29.723 
			59.02,29.723 		"/>
		<g>
			<path fill="#00163D" d="M79,57.833c-4.044,0-7.333-3.289-7.333-7.333c0-4.043,3.289-7.333,7.333-7.333s7.333,3.29,7.333,7.333
				C86.333,54.544,83.044,57.833,79,57.833z"/>
			<path fill="#FFFFFF" d="M79,45c3.036,0,5.5,2.463,5.5,5.5S82.036,56,79,56s-5.5-2.463-5.5-5.5S75.964,45,79,45 M79,41.333
				c-5.055,0-9.167,4.112-9.167,9.167s4.112,9.167,9.167,9.167s9.167-4.112,9.167-9.167S84.055,41.333,79,41.333L79,41.333z"/>
		</g>
		<g>
			<path fill="#00163D" d="M63,36.833c-4.044,0-7.333-3.29-7.333-7.333s3.289-7.333,7.333-7.333s7.333,3.29,7.333,7.333
				S67.044,36.833,63,36.833z"/>
			<path fill="#FFFFFF" d="M63,24c3.036,0,5.5,2.463,5.5,5.5S66.036,35,63,35s-5.5-2.463-5.5-5.5S59.964,24,63,24 M63,20.333
				c-5.055,0-9.167,4.112-9.167,9.167s4.112,9.167,9.167,9.167s9.167-4.112,9.167-9.167S68.055,20.333,63,20.333L63,20.333z"/>
		</g>
		<g>
			<path fill="#00163D" d="M57,77.833c-4.044,0-7.333-3.289-7.333-7.333s3.29-7.333,7.333-7.333s7.333,3.289,7.333,7.333
				S61.044,77.833,57,77.833z"/>
			<path fill="#FFFFFF" d="M57,65c3.036,0,5.5,2.463,5.5,5.5S60.036,76,57,76s-5.5-2.463-5.5-5.5S53.964,65,57,65 M57,61.333
				c-5.055,0-9.167,4.112-9.167,9.167s4.112,9.167,9.167,9.167s9.167-4.112,9.167-9.167S62.055,61.333,57,61.333L57,61.333z"/>
		</g>
	</g>
</g>
<g id="_x35__x5F_normaler_x5F_Strom" display="none">
	<g display="inline">
		<circle fill="#00163D" cx="50" cy="50" r="50"/>
		<g>
			<path fill="#FFFFFF" d="M56.734,26.384V14.923c0-1.56,1.265-2.822,2.823-2.822s2.821,1.263,2.821,2.822v11.461
				c0,1.559-1.263,2.822-2.821,2.822S56.734,27.942,56.734,26.384"/>
			<path fill="#FFFFFF" d="M37.379,26.384V14.923c0-1.56,1.264-2.822,2.822-2.822s2.823,1.263,2.823,2.822v11.461
				c0,1.559-1.265,2.822-2.823,2.822S37.379,27.942,37.379,26.384"/>
			<path fill="#FFFFFF" d="M61.155,41.166H39.241c-0.936,0-1.693-0.758-1.693-1.692c0-0.936,0.758-1.695,1.693-1.695h21.914
				c0.936,0,1.693,0.76,1.693,1.695C62.849,40.408,62.091,41.166,61.155,41.166 M70.886,32.057
				c-0.531-0.547-1.262-0.854-2.021-0.854H31.137c-0.763,0-1.491,0.308-2.023,0.854c-0.514,0.527-0.8,1.233-0.8,1.969
				c0,0.026,0.001,0.05,0.001,0.075l0.467,17.323c0.041,1.487,1.253,2.689,2.741,2.745c0.02,0.001,1.962,0.083,3.853,1.196
				c2.366,1.39,3.612,3.722,3.81,7.127v5.207c0,1.559,1.265,2.823,2.822,2.823h15.984c1.559,0,2.823-1.265,2.823-2.823v-5.207
				c0.198-3.405,1.444-5.737,3.81-7.127c1.89-1.111,3.832-1.195,3.832-1.195c1.506-0.031,2.721-1.241,2.762-2.746l0.467-17.323
				C71.714,33.34,71.417,32.602,70.886,32.057"/>
			<rect x="45.046" y="72.927" fill="#FFFFFF" width="9.908" height="14.973"/>
		</g>
	</g>
</g>
<g id="_x34__x5F_platzsparend" display="none">
	<g display="inline">
		<path fill="#00163D" d="M100,50c0,27.611-22.385,50-50,50C22.386,100,0,77.611,0,50C0,22.387,22.386,0,50,0
			C77.615,0,100,22.387,100,50z"/>
		<g>
			<g>
				<path fill="#FFFFFF" d="M24.452,33.432h-2.399v-3.199h2.399V33.432z M24.452,27.033h-2.399v-3.201h2.399V27.033z"/>
			</g>
			<g>
				<path fill="#FFFFFF" d="M76.453,78.232h-3.2v-2.4h3.2V78.232z M70.053,78.232h-3.2v-2.4h3.2V78.232z"/>
			</g>
			<g>
				<path fill="#FFFFFF" d="M76.453,78.232h-2.4v-3.199h2.4V78.232z M76.453,71.832h-2.4v-3.199h2.4V71.832z M76.453,65.432h-2.4
					v-3.199h2.4V65.432z M76.453,59.033h-2.4v-3.201h2.4V59.033z M76.453,52.633h-2.4v-3.201h2.4V52.633z M76.453,46.232h-2.4
					v-3.199h2.4V46.232z M76.453,39.832h-2.4v-3.199h2.4V39.832z"/>
			</g>
			<g>
				<path fill="#FFFFFF" d="M63.652,26.232h-3.199v-2.4h3.199V26.232z M57.253,26.232h-3.2v-2.4h3.2V26.232z M50.853,26.232h-3.2
					v-2.4h3.2V26.232z M44.452,26.232h-3.199v-2.4h3.199V26.232z M38.053,26.232h-3.2v-2.4h3.2V26.232z M31.652,26.232h-3.2v-2.4
					h3.2V26.232z M25.253,26.232h-3.2v-2.4h3.2V26.232z"/>
			</g>
		</g>
		<rect x="22.053" y="37.848" fill="#FFFFFF" width="40.385" height="40.385"/>
		<g>
			<polygon fill="#FFFFFF" points="49.452,33.778 54.221,38.546 71.055,21.711 78.574,29.229 61.739,46.064 66.584,50.907 
				43.183,57.177 			"/>
			<path fill="#00163D" d="M71.055,23.832l5.398,5.397L59.617,46.064l4.068,4.066l-18.382,4.925l4.925-18.38l3.992,3.991
				L71.055,23.832 M71.055,19.589l-2.121,2.122L54.221,36.424l-1.871-1.87l-3.674-3.673l-1.345,5.019l-4.925,18.38l-1.345,5.019
				l5.019-1.345l18.382-4.925l5.021-1.345l-3.676-3.675l-1.946-1.945l14.714-14.713l2.122-2.122l-2.122-2.122l-5.398-5.397
				L71.055,19.589L71.055,19.589z"/>
		</g>
	</g>
</g>
<g id="_x33__x5F_Emissionen_x5F_senken" display="none">
	<g display="inline">
		<circle fill="#00163D" cx="50" cy="50" r="50"/>
		<g>
			<g>
				<path fill="#FFFFFF" d="M81.57,41.857c-1.467-7.288-7.871-12.839-15.742-12.839c-2.635,0-4.955,0.584-7.004,1.751
					c-3.484-6.405-10.206-10.49-17.778-10.49c-11.372,0-20.412,9.038-20.412,20.411v1.167c-5.236,2.319-8.737,7.287-8.737,13.407
					c0,8.156,6.421,14.575,14.575,14.575h49.562c8.154,0,14.574-6.419,14.574-14.575C90.607,49.145,86.807,43.893,81.57,41.857
					L81.57,41.857z M81.57,41.857"/>
				<g>
					<path fill="#00163D" d="M48.934,48.251l0.025,0.075c-0.085,2.165-0.726,3.817-1.921,4.958
						c-1.197,1.142-2.932,1.713-5.205,1.713c-2.282,0-4.138-0.702-5.566-2.106c-1.428-1.402-2.143-3.224-2.143-5.464v-3.854
						c0-2.231,0.687-4.052,2.061-5.458c1.373-1.408,3.159-2.112,5.357-2.112c2.332,0,4.116,0.588,5.35,1.763
						c1.234,1.176,1.932,2.846,2.093,5.009l-0.025,0.075h-4.172c-0.06-1.199-0.327-2.092-0.805-2.675s-1.292-0.875-2.44-0.875
						c-0.973,0-1.738,0.391-2.295,1.174c-0.559,0.781-0.838,1.806-0.838,3.074v3.88c0,1.276,0.305,2.308,0.914,3.094
						c0.607,0.786,1.445,1.18,2.51,1.18c1.031,0,1.763-0.275,2.193-0.825c0.432-0.549,0.676-1.424,0.736-2.624H48.934z"/>
					<path fill="#00163D" d="M66.508,47.159c0,2.275-0.721,4.149-2.162,5.624c-1.441,1.476-3.324,2.214-5.648,2.214
						c-2.342,0-4.24-0.738-5.693-2.214c-1.454-1.475-2.181-3.349-2.181-5.624v-3.32c0-2.266,0.725-4.139,2.175-5.617
						c1.449-1.479,3.34-2.22,5.674-2.22c2.316,0,4.201,0.74,5.654,2.22c1.453,1.479,2.182,3.352,2.182,5.617V47.159z M62.234,43.813
						c0-1.318-0.311-2.399-0.932-3.246c-0.621-0.844-1.498-1.268-2.631-1.268c-1.158,0-2.045,0.421-2.656,1.262
						c-0.613,0.842-0.92,1.926-0.92,3.252v3.347c0,1.337,0.311,2.428,0.932,3.273c0.621,0.845,1.512,1.268,2.67,1.268
						c1.123,0,1.994-0.423,2.611-1.268c0.617-0.846,0.926-1.937,0.926-3.273V43.813z"/>
					<path fill="#00163D" d="M75.736,63.377h-7.531V61.75l3.459-3.637c0.439-0.502,0.762-0.95,0.969-1.345s0.311-0.737,0.311-1.028
						c0-0.413-0.105-0.743-0.314-0.99c-0.209-0.246-0.523-0.369-0.943-0.369c-0.373,0-0.668,0.159-0.883,0.477
						c-0.215,0.318-0.322,0.724-0.322,1.216h-2.439l-0.014-0.044c-0.025-0.995,0.301-1.839,0.977-2.531
						c0.674-0.693,1.568-1.038,2.682-1.038c1.184,0,2.105,0.289,2.77,0.871c0.662,0.581,0.994,1.378,0.994,2.388
						c0,0.68-0.176,1.281-0.529,1.804c-0.352,0.522-1.002,1.299-1.947,2.328l-1.457,1.561l0.023,0.043h4.197V63.377z"/>
				</g>
				<g>
					<polygon fill="#FFFFFF" points="9.972,60.083 16.716,60.083 16.716,36.275 27.349,36.275 27.349,60.083 34.199,60.083 
						22.085,81.063 					"/>
					<path fill="#00163D" d="M25.849,37.775v23.808h5.752l-9.516,16.479L12.57,61.583h5.646V37.775H25.849 M28.849,34.775h-3h-7.633
						h-3v3v20.808H12.57H7.374l2.598,4.5l9.515,16.479l2.598,4.5l2.598-4.5l9.516-16.479l2.598-4.5h-5.196h-2.752V37.775V34.775
						L28.849,34.775z"/>
				</g>
			</g>
			<rect x="8" y="43" fill="#00163D" width="10" height="17"/>
		</g>
	</g>
</g>
<g id="_x32__x5F_heizen_x5F_kuehlen" display="none">
	<g display="inline">
		<circle fill="#00163D" cx="50" cy="50" r="50"/>
		<g>
			<g>
				<path fill="#FFFFFF" d="M40.367,32.842c0.73-0.16,1.48-0.248,2.255-0.248c0.772,0,1.522,0.087,2.254,0.248v-8.488l7.813-7.814
					l-3.183-3.189l-4.63,4.632v-4.983h-4.509v4.983l-4.632-4.632l-3.18,3.189l7.812,7.814V32.842z"/>
				<path fill="#FFFFFF" d="M55.098,45.553v-4.509h-2.02c0.155,0.731,0.248,1.482,0.248,2.255c0,0.773-0.087,1.523-0.248,2.253
					H55.098z"/>
				<path fill="#FFFFFF" d="M44.876,73.601v-4.99l3.374,3.373c-0.037-0.469-0.063-0.94-0.063-1.422c0-1.629,0.191-3.109,0.533-4.472
					l-3.845-3.845v-8.489c-0.731,0.154-1.481,0.243-2.255,0.243s-1.523-0.089-2.254-0.243v8.489l-7.813,7.814l3.182,3.182
					l4.631-4.631v4.99H44.876z"/>
				<path fill="#FFFFFF" d="M12.674,50.185l3.188,3.182l7.814-7.819h8.489c-0.162-0.725-0.25-1.481-0.25-2.248
					c0-0.773,0.088-1.53,0.25-2.254h-8.489l-7.814-7.815l-3.188,3.183l4.632,4.632h-4.984v4.501h4.984L12.674,50.185z"/>
				<path fill="#FFFFFF" d="M16.524,31.611l11.052-0.051l6.037,5.98c0.817-1.275,1.9-2.371,3.171-3.202l-6.032-5.974l-0.055-11.051
					l-4.502,0.018l0.03,6.552l-3.541-3.513l-3.17,3.201l3.541,3.504l-6.549,0.032L16.524,31.611z"/>
				<path fill="#FFFFFF" d="M51.63,37.541l3.468-3.437v-8.971c0-3.461,1.591-5.838,3.943-7.015l0.006-0.786l-4.508-0.019
					L54.49,28.365l-6.029,5.974C49.729,35.17,50.807,36.266,51.63,37.541"/>
				<path fill="#FFFFFF" d="M48.461,52.258l5.59,5.541c0.34-0.29,0.681-0.589,1.047-0.862v-4.442l-3.468-3.442
					C50.807,50.332,49.729,51.422,48.461,52.258"/>
				<path fill="#FFFFFF" d="M27.576,55.031l-11.052-0.049l-0.018,4.508l6.549,0.022l-3.541,3.512l3.17,3.203l3.541-3.512
					l-0.029,6.551l4.501,0.017l0.056-11.049l6.031-5.977c-1.271-0.836-2.354-1.926-3.171-3.206L27.576,55.031z"/>
				<path fill="#FFFFFF" d="M50.787,43.3c0,4.506-3.658,8.167-8.166,8.167c-4.513,0-8.166-3.661-8.166-8.167
					c0-4.514,3.653-8.169,8.166-8.169C47.129,35.131,50.787,38.786,50.787,43.3"/>
			</g>
			<path fill="#FFFFFF" d="M64.74,30.958v16.158h4.593V30.952c0-1.056-0.139-1.802-0.346-2.337
				c-0.516-1.298-1.462-1.304-1.947-1.304s-1.432,0.005-1.941,1.292C64.887,29.138,64.74,29.883,64.74,30.958"/>
			<path fill="#FFFFFF" d="M67.04,26.072c2.693,0,3.537,2.187,3.537,4.886v33.063c3.707,0.951,5.667,4.163,5.935,7.354
				c0.029,0.249,0.055,0.491,0.055,0.746c0,5.188-4.211,9.4-9.399,9.4c-5.194,0-9.399-4.212-9.399-9.4
				c0-0.255,0.02-0.503,0.056-0.746c0.036-0.499,0.115-0.972,0.229-1.432c0.372-1.487,1.094-2.79,2.118-3.8
				c0.443-0.442,0.959-0.806,1.499-1.128c0.57-0.345,1.171-0.637,1.827-0.836V30.958c0-0.862,0.103-1.662,0.302-2.362
				c0.098-0.32,0.213-0.611,0.353-0.884c0.31-0.57,0.735-1.025,1.322-1.304C65.911,26.194,66.422,26.072,67.04,26.072
				 M59.177,28.125v31.483c-1.299,0.825-2.446,1.857-3.435,3.028c-1.59,1.875-2.719,4.139-3.229,6.634
				c-0.2,0.97-0.333,1.965-0.333,2.997c0,0.071,0.012,0.138,0.012,0.21c0.114,8.176,6.771,14.769,14.975,14.769
				c1.044,0,2.063-0.102,3.046-0.308c6.814-1.407,11.936-7.438,11.936-14.671c0-5.504-2.974-10.297-7.397-12.905V28.125
				c0-3.708-2.589-6.796-6.055-7.585c-0.558-0.127-1.134-0.2-1.735-0.2c-2.919,0-5.461,1.608-6.796,3.991
				C59.534,25.455,59.177,26.747,59.177,28.125"/>
			<path fill="#FFFFFF" d="M71.803,78.128c1.814-2.083,2.663-4.646,2.427-7.191c-0.157-1.715-3.464-1.727-3.301,0
				c0.201,2.13-0.461,4.098-1.977,5.833C67.714,78.187,70.577,79.528,71.803,78.128"/>
		</g>
	</g>
</g>
<g id="_x31__x5F_24_x5F_Stunden" display="none">
	<g display="inline">
		<circle fill="#00163D" cx="50" cy="50" r="50"/>
		<g>
			<g>
				<circle fill="#FFFFFF" cx="49.414" cy="50.367" r="5.983"/>
				<g>
					<g>
						<path fill="none" stroke="#FFFFFF" stroke-width="5.5732" stroke-miterlimit="10" d="M67.393,21.422
							c0.203,0.12,0.406,0.242,0.605,0.366c9.763,6.037,16.267,16.841,16.267,29.162c0,6.396-1.752,12.383-4.803,17.506"/>
						<g>
							<polygon fill="#FFFFFF" points="73.636,59.702 70.034,78.815 88.389,72.378 							"/>
						</g>
					</g>
				</g>
				<g>
					<g>
						<path fill="none" stroke="#FFFFFF" stroke-width="5.5732" stroke-miterlimit="10" d="M37.967,83.043
							c-0.678-0.254-1.345-0.529-2.002-0.824"/>
						
							<path fill="none" stroke="#FFFFFF" stroke-width="5.5732" stroke-miterlimit="10" stroke-dasharray="4.7497,4.7497,4.7497,4.7497" d="
							M31.781,79.976c-4.704-2.959-8.638-7.029-11.433-11.843"/>
						
							<path fill="none" stroke="#FFFFFF" stroke-width="5.5732" stroke-miterlimit="10" stroke-dasharray="4.7497,4.7497,4.7497,4.7497,4.7497,4.7497" d="
							M19.227,66.039c-2.236-4.553-3.493-9.674-3.493-15.089c0-18.924,15.341-34.266,34.266-34.266
							c4.731,0,9.238,0.959,13.338,2.694"/>
						<path fill="none" stroke="#FFFFFF" stroke-width="5.5732" stroke-miterlimit="10" d="M65.493,20.38
							c0.646,0.328,1.278,0.675,1.899,1.042"/>
					</g>
				</g>
				<rect x="47.658" y="27.2" fill="#FFFFFF" width="3.51" height="25.203"/>
				
					<rect x="42.959" y="46.289" transform="matrix(-0.7147 -0.6994 0.6994 -0.7147 38.1302 125.7649)" fill="#FFFFFF" width="3.512" height="17.634"/>
			</g>
			<g>
				<path fill="#FFFFFF" d="M53.29,83.315h-9.086v-2.52l3.954-3.385c1.436-1.232,1.932-1.949,1.932-3.034V74.12
					c0-0.976-0.865-1.473-1.692-1.473c-1.214,0-1.803,0.828-2.06,1.803l-2.409-0.92c0.569-1.783,2.06-3.274,4.728-3.274
					c2.777,0,4.377,1.638,4.377,3.864c0,2.206-1.582,3.55-3.422,5.002l-2.391,1.877h6.069V83.315z"/>
				<path fill="#FFFFFF" d="M60.389,83.315v-2.464h-5.647v-2.354l5.003-8.021h3.275v8.241h1.618v2.134H63.02v2.464H60.389z
					 M56.949,78.718h3.439v-5.39h-0.184L56.949,78.718z"/>
			</g>
		</g>
	</g>
</g>
</svg>
